<?xml version="1.0" standalone="no"?>
<!DOCTYPE svg PUBLIC "-//W3C//DTD SVG 20010904//EN"
 "http://www.w3.org/TR/2001/REC-SVG-20010904/DTD/svg10.dtd">
<svg version="1.0" xmlns="http://www.w3.org/2000/svg"
 width="512.000000pt" height="512.000000pt" viewBox="0 0 512.000000 512.000000"
 preserveAspectRatio="xMidYMid meet">

<g transform="translate(0.000000,512.000000) scale(0.100000,-0.100000)"
fill="#ffc576" stroke="none">
<path d="M3475 5096 c-40 -19 -248 -223 -1070 -1046 -575 -576 -1036 -1030
-1057 -1041 -100 -52 -233 15 -254 128 -5 27 35 206 172 772 132 541 179 752
179 796 0 121 -82 226 -203 261 -138 40 -297 -45 -337 -180 -8 -28 -35 -134
-60 -236 -124 -516 -304 -999 -572 -1534 -143 -286 -193 -418 -233 -608 -171
-829 232 -1663 985 -2038 77 -38 188 -86 247 -105 579 -191 1212 -89 1698 274
95 71 2034 1992 2065 2046 46 80 44 162 -5 237 -57 86 -181 123 -278 83 -25
-11 -193 -171 -532 -510 -502 -501 -529 -525 -600 -525 -36 0 -96 23 -123 48
-53 47 -72 143 -41 205 9 18 382 399 829 847 758 760 813 818 825 862 36 137
-62 276 -201 286 -119 9 -79 43 -879 -754 -494 -492 -738 -728 -763 -739 -46
-19 -88 -19 -134 0 -50 21 -72 42 -94 90 -24 52 -24 99 2 151 14 30 244 264
789 804 824 816 820 812 820 909 0 88 -64 183 -147 218 -43 18 -125 17 -171
-2 -26 -11 -270 -249 -817 -795 -546 -545 -791 -784 -817 -795 -77 -31 -173
-8 -216 52 -22 32 -44 104 -38 124 2 8 7 28 11 44 5 23 168 192 655 680 497
498 654 661 669 695 50 111 0 244 -113 296 -66 31 -126 31 -191 0z"/>
<path d="M4430 1408 c-40 -20 -51 -35 -98 -123 -56 -105 -78 -137 -150 -222
-89 -103 -241 -209 -380 -265 -82 -32 -115 -56 -138 -100 -31 -60 -6 -144 55
-185 53 -36 108 -30 229 21 275 118 519 350 656 623 61 122 44 212 -47 253
-54 25 -73 25 -127 -2z"/>
<path d="M4920 1139 c-43 -18 -71 -51 -117 -143 -153 -303 -403 -543 -695
-667 -129 -55 -137 -60 -160 -92 -65 -92 -7 -222 106 -234 71 -8 260 77 441
198 240 161 448 402 582 674 37 76 44 97 40 134 -10 96 -114 165 -197 130z"/>
</g>
</svg>
