<?xml version="1.0" standalone="no"?>
<!DOCTYPE svg PUBLIC "-//W3C//DTD SVG 20010904//EN"
 "http://www.w3.org/TR/2001/REC-SVG-20010904/DTD/svg10.dtd">
<svg version="1.0" xmlns="http://www.w3.org/2000/svg"
 width="512.000000pt" height="512.000000pt" viewBox="0 0 512.000000 512.000000"
 preserveAspectRatio="xMidYMid meet">

<g transform="translate(0.000000,512.000000) scale(0.100000,-0.100000)"
fill="#ffc576" stroke="none">
<path d="M466 4309 c-62 -15 -153 -68 -197 -116 -22 -24 -55 -74 -72 -111
l-32 -67 0 -1456 0 -1455 37 -76 c45 -91 103 -147 196 -191 l67 -32 2096 0
2095 0 76 37 c91 45 147 103 191 196 l32 67 0 1455 0 1455 -32 67 c-44 93
-100 151 -191 196 l-76 37 -2075 2 c-1231 0 -2092 -3 -2115 -8z m4168 -161
c55 -16 138 -99 154 -154 7 -24 12 -100 12 -178 l0 -136 -2240 0 -2240 0 0
136 c0 78 5 154 12 178 15 51 99 137 148 153 53 17 4097 17 4154 1z m166
-1804 c0 -895 -3 -1187 -12 -1218 -16 -55 -99 -138 -154 -154 -60 -18 -4088
-18 -4148 0 -55 16 -138 99 -154 154 -9 31 -12 323 -12 1218 l0 1176 2240 0
2240 0 0 -1176z"/>
<path d="M640 3920 l0 -80 80 0 80 0 0 80 0 80 -80 0 -80 0 0 -80z"/>
<path d="M960 3920 l0 -80 80 0 80 0 0 80 0 80 -80 0 -80 0 0 -80z"/>
<path d="M1280 3920 l0 -80 80 0 80 0 0 80 0 80 -80 0 -80 0 0 -80z"/>
<path d="M2560 3920 l0 -80 960 0 960 0 0 80 0 80 -960 0 -960 0 0 -80z"/>
<path d="M2883 3158 l-173 -173 -100 100 c-144 144 -118 152 -396 -125 -124
-124 -245 -254 -270 -290 -67 -99 -97 -192 -102 -324 -6 -155 19 -252 94 -372
l32 -51 -329 -329 c-181 -181 -329 -334 -329 -339 0 -13 92 -105 105 -105 6 0
158 148 339 329 l329 329 51 -32 c65 -41 136 -71 207 -86 82 -18 259 -9 336
18 126 44 176 83 428 333 295 293 285 264 140 409 l-100 100 173 173 c94 95
172 177 172 182 0 13 -92 105 -105 105 -5 0 -87 -78 -182 -172 l-173 -173
-102 103 -103 102 173 173 c94 95 172 177 172 184 0 10 -100 103 -111 103 -2
0 -82 -78 -176 -172z m79 -1031 c-103 -103 -208 -202 -235 -218 -136 -88 -346
-93 -487 -11 -151 87 -241 243 -241 417 0 148 40 234 165 363 l80 83 288 -288
288 -288 57 58 58 57 -288 288 -287 287 57 58 58 57 337 -337 338 -338 -188
-188z"/>
</g>
</svg>
