<?xml version="1.0" standalone="no"?>
<!DOCTYPE svg PUBLIC "-//W3C//DTD SVG 20010904//EN"
 "http://www.w3.org/TR/2001/REC-SVG-20010904/DTD/svg10.dtd">
<svg version="1.0" xmlns="http://www.w3.org/2000/svg"
 width="512.000000pt" height="512.000000pt" viewBox="0 0 512.000000 512.000000"
 preserveAspectRatio="xMidYMid meet">

<g transform="translate(0.000000,512.000000) scale(0.100000,-0.100000)"
fill="#ffc576" stroke="none">
<path d="M2405 4344 c-801 -81 -1437 -637 -1609 -1407 -69 -306 -57 -618 36
-925 l32 -104 22 129 c53 305 162 541 357 771 293 346 788 563 1232 539 261
-14 472 -91 734 -268 163 -110 190 -137 235 -245 48 -115 52 -151 27 -248 -51
-192 -159 -356 -461 -691 -169 -188 -193 -218 -230 -293 l-30 -61 -92 41
c-103 44 -254 122 -396 205 -52 30 -96 52 -99 50 -2 -3 53 -64 124 -137 124
-128 262 -243 375 -310 l55 -33 7 -61 c8 -82 63 -193 118 -241 87 -73 202
-112 363 -122 88 -5 227 6 290 23 18 5 25 -9 67 -143 26 -82 50 -157 54 -166
6 -16 -6 -17 -139 -17 l-145 0 -38 113 c-20 61 -39 115 -41 119 -2 4 -34 -4
-71 -18 -145 -54 -329 -92 -506 -103 -235 -15 -501 20 -709 92 -54 19 -99 31
-101 28 -2 -3 -20 -57 -40 -118 l-38 -113 -145 0 c-133 0 -144 1 -139 18 4 9
30 91 59 183 l54 165 -65 43 -65 43 -41 -22 c-159 -88 -377 -252 -500 -378
l-58 -60 78 -63 c151 -120 474 -319 518 -319 10 0 15 29 20 118 4 64 10 125
12 135 5 16 63 17 1044 17 l1038 0 5 -32 c3 -18 9 -79 13 -136 4 -60 11 -102
17 -102 47 0 365 195 521 319 l78 63 -68 70 c-102 103 -283 246 -397 313 l-49
28 109 56 c134 70 247 143 383 250 120 94 300 257 300 273 0 15 -154 234 -341
483 -235 315 -407 511 -636 725 l-102 96 24 57 c73 181 230 333 383 372 124
32 206 0 344 -136 l87 -86 -24 64 c-14 35 -47 109 -74 164 -256 511 -741 873
-1299 970 -112 19 -374 32 -467 23z"/>
<path d="M2572 2744 c-166 -83 -188 -307 -41 -414 57 -41 102 -53 171 -47 122
11 208 100 216 223 6 86 -15 139 -77 197 -78 73 -176 88 -269 41z m142 -24
c51 -19 64 -94 25 -136 -64 -68 -177 13 -134 96 23 44 62 58 109 40z"/>
<path d="M4077 2670 c-81 -96 -39 -322 59 -322 96 0 130 242 47 334 -26 29
-77 23 -106 -12z m83 -9 c23 -44 5 -111 -31 -111 -17 0 -31 30 -31 65 0 3 2
19 6 35 7 35 39 41 56 11z"/>
</g>
</svg>
