<?xml version="1.0" standalone="no"?>
<!DOCTYPE svg PUBLIC "-//W3C//DTD SVG 20010904//EN"
 "http://www.w3.org/TR/2001/REC-SVG-20010904/DTD/svg10.dtd">
<svg version="1.0" xmlns="http://www.w3.org/2000/svg"
 width="512.000000pt" height="512.000000pt" viewBox="0 0 512.000000 512.000000"
 preserveAspectRatio="xMidYMid meet">

<g transform="translate(0.000000,512.000000) scale(0.100000,-0.100000)"
fill="#ffc576" stroke="none">
<path d="M2643 4808 c-41 -44 -327 -407 -341 -435 -18 -34 -14 -62 13 -88 20
-21 34 -25 80 -25 l55 0 0 -50 0 -50 -1132 -2 c-1080 -3 -1135 -4 -1176 -22
-52 -23 -115 -92 -130 -144 -9 -29 -12 -337 -12 -1193 l0 -1154 24 -50 c25
-54 71 -100 123 -122 26 -10 167 -13 728 -13 l696 0 -6 -22 c-18 -61 -107
-189 -197 -283 -54 -56 -105 -118 -113 -138 -10 -25 -15 -70 -15 -141 0 -96 2
-107 24 -133 l24 -28 604 -3 c331 -2 618 0 636 3 63 12 72 31 72 160 0 75 -5
127 -14 148 -7 18 -51 71 -98 117 -46 47 -103 112 -125 145 -37 55 -93 157
-93 170 0 3 58 5 129 5 l130 0 31 -57 c68 -129 202 -276 327 -361 266 -180
599 -230 909 -137 105 32 229 94 311 156 52 40 68 47 79 38 13 -10 12 -15 -5
-33 -44 -47 -54 -132 -22 -194 24 -46 534 -554 578 -576 39 -20 103 -21 146
-2 40 18 212 191 226 229 14 36 14 88 0 124 -14 37 -555 581 -596 599 -59 26
-135 14 -179 -27 -18 -17 -23 -18 -33 -5 -9 11 -2 26 36 77 194 257 254 620
156 934 -86 276 -281 503 -540 633 l-113 56 0 530 c0 494 -2 534 -19 571 -24
52 -58 88 -112 117 -43 23 -49 23 -397 26 l-353 3 3 47 3 47 59 5 c45 4 62 11
77 29 38 47 29 64 -161 306 -99 126 -186 233 -193 237 -29 18 -73 8 -104 -24z
m-195 -860 l3 -48 -1071 -2 -1072 -3 -24 -28 -24 -28 0 -953 c0 -949 0 -953
21 -980 l20 -26 1062 -2 1061 -3 13 -93 c7 -51 16 -108 22 -127 l9 -35 -1131
0 -1131 0 -23 22 -23 21 0 1138 c0 626 3 1145 6 1154 18 45 7 44 1174 42
l1105 -2 3 -47z m1213 23 c18 -22 19 -46 19 -521 l0 -499 -37 5 c-21 3 -44 7
-50 10 -10 3 -13 99 -13 439 0 266 -4 443 -10 455 -18 35 -65 40 -341 40
l-269 0 0 43 c0 24 3 47 7 51 4 4 157 6 341 4 l334 -3 19 -24z m-1213 -833 l2
-598 -35 0 -35 0 0 541 0 541 -29 29 -29 29 -202 0 -202 0 -29 -29 -29 -29 0
-541 0 -541 -35 0 -35 0 0 339 c0 319 -1 340 -19 362 -19 24 -20 24 -236 24
-216 0 -217 0 -236 -24 -18 -22 -19 -43 -19 -362 l0 -339 -35 0 -35 0 0 155
c0 162 -9 205 -45 219 -9 3 -109 6 -221 6 -270 0 -254 14 -254 -213 l0 -165
-71 -4 c-60 -3 -74 -8 -90 -27 -27 -33 -24 -77 6 -106 l24 -25 987 0 c935 0
986 -1 979 -17 -29 -66 -76 -222 -81 -268 l-7 -55 -1008 0 -1009 0 0 850 0
850 1013 -2 1012 -3 3 -597z m972 218 l0 -385 -47 -6 c-116 -14 -258 -57 -400
-122 -10 -4 -13 87 -13 439 0 245 3 448 7 451 3 4 107 7 230 7 l223 0 0 -384z
m285 -575 c321 -83 562 -327 651 -657 29 -105 26 -331 -4 -438 -50 -175 -129
-304 -260 -427 -172 -161 -371 -239 -607 -239 -173 0 -323 42 -471 132 -412
248 -547 805 -297 1220 135 224 352 373 616 424 97 18 269 11 372 -15z m-1575
-1406 c22 -47 60 -117 84 -155 l46 -70 -340 0 -340 0 34 48 c34 47 90 154 120
225 l15 37 171 0 171 0 39 -85z"/>
<path d="M1894 1820 c-28 -11 -54 -48 -54 -76 0 -12 9 -33 21 -48 43 -55 139
-21 139 50 0 50 -61 92 -106 74z"/>
<path d="M3355 2674 c-181 -38 -311 -109 -431 -237 -84 -88 -136 -176 -170
-282 -98 -310 -5 -631 242 -837 72 -60 215 -132 309 -154 95 -23 268 -23 360
0 228 58 429 225 522 434 66 150 84 349 44 505 -53 204 -204 396 -387 490
-121 62 -228 87 -364 86 -58 -1 -114 -3 -125 -5z m279 -169 c218 -57 384 -223
442 -444 17 -67 19 -220 3 -287 -6 -27 -30 -87 -52 -134 -73 -149 -213 -266
-382 -316 -81 -24 -239 -24 -320 0 -234 70 -401 255 -442 491 -53 306 144 609
447 689 73 19 231 20 304 1z"/>
</g>
</svg>
