<?xml version="1.0" standalone="no"?>
<!DOCTYPE svg PUBLIC "-//W3C//DTD SVG 20010904//EN"
 "http://www.w3.org/TR/2001/REC-SVG-20010904/DTD/svg10.dtd">
<svg version="1.0" xmlns="http://www.w3.org/2000/svg"
 width="512.000000pt" height="512.000000pt" viewBox="0 0 512.000000 512.000000"
 preserveAspectRatio="xMidYMid meet">

<g transform="translate(0.000000,512.000000) scale(0.100000,-0.100000)"
fill="#ffc576" stroke="none">
<path d="M187 4716 c-81 -22 -155 -96 -177 -176 -7 -25 -9 -551 -8 -1531 3
-1455 4 -1495 22 -1533 23 -46 74 -99 119 -123 30 -17 95 -18 969 -21 l937 -2
6 -21 c15 -48 7 -188 -15 -253 -22 -67 -81 -157 -139 -211 -30 -28 -39 -30
-130 -36 -108 -6 -174 -31 -216 -81 -33 -39 -89 -186 -88 -232 0 -29 8 -45 32
-70 l31 -31 1030 0 1030 0 31 31 c42 42 42 85 -1 194 -55 142 -128 190 -286
190 -68 0 -76 2 -110 32 -107 94 -167 225 -166 364 0 139 -49 124 407 124
l394 0 20 26 c26 33 27 65 2 95 l-19 24 -1827 5 -1827 5 -29 33 -29 32 0 295
0 295 2410 0 2410 0 0 -296 0 -296 -34 -34 -34 -34 -401 0 -402 0 -24 -25
c-32 -31 -33 -74 -1 -104 l23 -22 424 3 c383 3 427 5 456 21 45 24 96 77 119
123 19 38 19 76 19 1554 l0 1515 -22 41 c-25 48 -81 100 -132 123 -33 15 -240
16 -2381 18 -1890 1 -2354 -1 -2393 -11z m4718 -150 c69 -29 65 45 65 -1176
l0 -1100 -65 0 -65 0 0 1049 c0 577 -3 1057 -6 1066 -18 47 88 45 -2274 45
-2362 0 -2256 2 -2274 -45 -3 -9 -6 -334 -6 -721 l0 -705 25 -24 c13 -14 36
-25 50 -25 14 0 37 11 50 25 l25 24 0 661 0 660 2130 0 2130 0 0 -1005 0
-1005 -2130 0 -2130 0 0 220 0 221 -25 24 c-13 14 -36 25 -50 25 -14 0 -37
-11 -50 -25 l-25 -24 0 -221 0 -220 -65 0 -65 0 0 1100 c0 1217 -4 1146 63
1175 49 21 4641 22 4692 1z m-1998 -3348 c0 -150 34 -265 109 -365 13 -17 24
-34 24 -37 0 -3 -216 -6 -480 -6 -264 0 -480 3 -480 6 0 3 11 20 24 37 75 100
110 219 108 370 l-1 107 349 0 348 0 -1 -112z m517 -572 c31 -13 56 -54 56
-92 0 -12 -154 -14 -920 -14 -766 0 -920 2 -920 14 0 37 25 79 54 92 47 20
1681 20 1730 0z"/>
<path d="M2192 3659 c-51 -19 -53 -32 -50 -379 l3 -322 24 -19 c30 -24 62 -24
94 1 25 20 25 23 29 168 3 163 13 194 65 207 22 5 31 2 45 -15 15 -19 18 -43
18 -160 0 -75 5 -151 11 -169 19 -53 77 -68 117 -31 21 20 22 29 22 183 0 89
-5 178 -10 198 -27 97 -95 145 -202 143 l-68 -1 0 76 c0 84 -13 116 -53 123
-13 3 -33 1 -45 -3z"/>
<path d="M2863 3659 c-34 -12 -53 -49 -53 -101 0 -40 -3 -48 -18 -48 -28 0
-62 -42 -62 -77 0 -32 37 -73 66 -73 10 0 14 -44 16 -201 3 -197 3 -201 27
-220 30 -25 62 -24 95 2 l26 20 0 200 c0 194 1 199 20 199 29 0 70 44 70 75 0
31 -41 75 -70 75 -18 0 -20 6 -20 53 0 79 -39 118 -97 96z"/>
<path d="M3389 3658 c-33 -11 -49 -46 -49 -103 0 -38 -3 -45 -20 -45 -58 0
-82 -91 -34 -129 15 -12 33 -21 40 -21 11 0 14 -37 14 -195 0 -195 0 -196 25
-220 13 -14 36 -25 50 -25 14 0 37 11 50 25 25 24 25 25 25 218 l0 195 30 6
c43 8 68 61 49 102 -9 18 -26 32 -46 39 -31 9 -33 12 -33 58 0 26 -4 57 -10
67 -13 25 -59 39 -91 28z"/>
<path d="M1544 3591 c-11 -5 -90 -118 -177 -253 -167 -260 -178 -287 -137
-328 27 -27 76 -26 102 3 43 49 318 491 318 512 0 48 -59 85 -106 66z"/>
<path d="M1865 3589 c-27 -13 -328 -484 -333 -521 -9 -61 69 -101 116 -60 12
9 89 123 171 252 165 257 174 281 125 319 -29 23 -48 25 -79 10z"/>
<path d="M941 3504 c-12 -15 -21 -40 -21 -56 0 -36 40 -78 75 -78 37 0 75 42
75 83 0 70 -87 104 -129 51z"/>
<path d="M3715 3435 l-25 -24 0 -314 c0 -303 1 -315 21 -341 27 -34 77 -36
107 -3 19 21 22 34 22 120 l0 97 28 -7 c52 -15 145 -8 187 14 47 25 95 74 121
123 27 51 25 162 -3 215 -60 113 -192 170 -302 132 -39 -14 -47 -14 -65 -1
-30 21 -64 17 -91 -11z m304 -160 c38 -37 37 -104 -2 -142 -22 -22 -37 -28
-72 -28 -35 0 -50 6 -72 28 -50 50 -33 140 32 168 32 14 87 2 114 -26z"/>
<path d="M941 3184 c-34 -44 -21 -103 28 -124 53 -21 101 16 101 77 0 68 -88
100 -129 47z"/>
<path d="M2411 1854 c-24 -30 -26 -43 -10 -77 17 -37 50 -47 159 -47 109 0
142 10 159 47 16 34 14 47 -10 77 -20 26 -22 26 -149 26 -127 0 -129 0 -149
-26z"/>
</g>
</svg>
